<?xml version="1.0" encoding="UTF-8" standalone="no"?><!DOCTYPE svg PUBLIC "-//W3C//DTD SVG 1.1//EN" "http://www.w3.org/Graphics/SVG/1.1/DTD/svg11.dtd"><svg width="100%" height="100%" viewBox="0 0 20521 20521" version="1.1" xmlns="http://www.w3.org/2000/svg" xmlns:xlink="http://www.w3.org/1999/xlink" xml:space="preserve" xmlns:serif="http://www.serif.com/" style="fill-rule:evenodd;clip-rule:evenodd;stroke-linejoin:round;stroke-miterlimit:2;"><path d="M7621.9,5065.43c699.778,-699.778 1648.88,-1092.91 2638.52,-1092.91c989.635,-0 1938.74,393.131 2638.52,1092.91c823.905,823.905 1732.56,1732.56 2556.47,2556.47c699.778,699.778 1092.91,1648.88 1092.91,2638.52c-0,989.635 -393.132,1938.74 -1092.91,2638.52c-823.904,823.905 -1732.56,1732.56 -2556.47,2556.47c-699.778,699.778 -1648.88,1092.91 -2638.52,1092.91c-989.636,-0 -1938.74,-393.132 -2638.52,-1092.91c-823.904,-823.904 -1732.56,-1732.56 -2556.47,-2556.47c-699.778,-699.778 -1092.91,-1648.88 -1092.91,-2638.52c-0,-989.636 393.131,-1938.74 1092.91,-2638.52c823.905,-823.904 1732.56,-1732.56 2556.47,-2556.47Z" style="fill:url(#_Linear1);"/><defs><linearGradient id="_Linear1" x1="0" y1="0" x2="1" y2="0" gradientUnits="userSpaceOnUse" gradientTransform="matrix(7272.11,-13542.4,13542.4,7272.11,6650.27,17359.8)"><stop offset="0" style="stop-color:#f0e;stop-opacity:1"/><stop offset="1" style="stop-color:#00ceff;stop-opacity:1"/></linearGradient></defs></svg>