<?xml version="1.0" encoding="UTF-8" standalone="no"?><!DOCTYPE svg PUBLIC "-//W3C//DTD SVG 1.1//EN" "http://www.w3.org/Graphics/SVG/1.1/DTD/svg11.dtd"><svg width="100%" height="100%" viewBox="0 0 1182 1182" version="1.1" xmlns="http://www.w3.org/2000/svg" xmlns:xlink="http://www.w3.org/1999/xlink" xml:space="preserve" xmlns:serif="http://www.serif.com/" style="fill-rule:evenodd;clip-rule:evenodd;stroke-linejoin:round;stroke-miterlimit:2;"><g><path d="M423.559,797.06c-0,9.637 -5.076,18.562 -13.359,23.488c-8.282,4.926 -18.547,5.126 -27.015,0.525c-83.028,-45.107 -269.575,-146.454 -322.563,-175.242c-8.802,-4.782 -14.282,-13.996 -14.282,-24.013l-0,-58.561c-0,-9.892 5.345,-19.011 13.976,-23.844c52.094,-29.171 236.202,-132.263 318.843,-178.539c8.463,-4.739 18.804,-4.637 27.172,0.268c8.367,4.904 13.508,13.877 13.508,23.576c0,15.888 0,32.598 0,44.396c0,9.857 -5.308,18.951 -13.891,23.797c-53.805,30.379 -245.504,138.618 -245.504,138.618c-0,0 194.378,107.31 248.994,137.461c8.712,4.81 14.121,13.974 14.121,23.925l-0,44.145Z" style="fill:#fff;fill-rule:nonzero;"/><path d="M499.56,875.061c-8.563,-0 -16.631,-4.014 -21.797,-10.844c-5.165,-6.83 -6.83,-15.687 -4.498,-23.927c30.356,-107.258 121.917,-430.771 145.575,-514.362c3.33,-11.765 14.069,-19.886 26.295,-19.886c11.545,-0 26.263,-0 39.659,-0c8.575,-0 16.653,4.025 21.817,10.87c5.164,6.846 6.815,15.719 4.46,23.964c-30.665,107.351 -123.087,430.89 -146.932,514.363c-3.352,11.733 -14.075,19.822 -26.277,19.822c-11.189,-0 -25.345,-0 -38.302,-0Z" style="fill:#fff;fill-rule:nonzero;"/><path d="M797.551,820.863c-8.468,4.604 -18.735,4.407 -27.02,-0.519c-8.285,-4.925 -13.363,-13.851 -13.363,-23.49l0,-44.075c0,-9.978 5.439,-19.163 14.188,-23.961c54.757,-30.031 249.303,-136.726 249.303,-136.726c-0,0 -198.062,-109.952 -253.146,-140.531c-8.68,-4.819 -14.064,-13.965 -14.064,-23.893l0,-43.228c0,-9.656 5.096,-18.596 13.406,-23.515c8.309,-4.92 18.598,-5.089 27.064,-0.445c83.889,46.011 273.363,149.934 326.658,179.166c8.748,4.798 14.186,13.983 14.186,23.96l-0,57.655c-0,10.014 -5.477,19.226 -14.274,24.009c-53.018,28.827 -239.832,130.405 -322.938,175.593Z" style="fill:#fff;fill-rule:nonzero;"/></g></svg>